<?xml version="1.0" encoding="UTF-8" standalone="no"?>
<!-- Created with Inkscape (http://www.inkscape.org/) -->

<svg
   width="92.07914mm"
   height="124.17587mm"
   viewBox="0 0 92.07914 124.17587"
   version="1.1"
   id="svg5"
   sodipodi:docname="aj-logo.svg"
   inkscape:version="1.1.2 (0a00cf5339, 2022-02-04)"
   xmlns:inkscape="http://www.inkscape.org/namespaces/inkscape"
   xmlns:sodipodi="http://sodipodi.sourceforge.net/DTD/sodipodi-0.dtd"
   xmlns="http://www.w3.org/2000/svg"
   xmlns:svg="http://www.w3.org/2000/svg">
  <sodipodi:namedview
     id="namedview7"
     pagecolor="#ffffff"
     bordercolor="#666666"
     borderopacity="1.0"
     inkscape:pageshadow="2"
     inkscape:pageopacity="0.0"
     inkscape:pagecheckerboard="0"
     inkscape:document-units="mm"
     showgrid="false"
     inkscape:zoom="0.99333456"
     inkscape:cx="250.67083"
     inkscape:cy="101.17437"
     inkscape:window-width="1920"
     inkscape:window-height="1016"
     inkscape:window-x="0"
     inkscape:window-y="0"
     inkscape:window-maximized="1"
     inkscape:current-layer="g64"
     fit-margin-top="0"
     fit-margin-left="0"
     fit-margin-right="0"
     fit-margin-bottom="0" />
  <defs
     id="defs2">
    <linearGradient
       id="paint0_linear_111_2442"
       x1="69"
       y1="0.70947301"
       x2="69"
       y2="123.129"
       gradientUnits="userSpaceOnUse"
       gradientTransform="translate(146.01464,609.49932)">
      <stop
         stop-color="#FA17C8"
         id="stop11" />
      <stop
         offset="1"
         stop-color="#00CCFF"
         id="stop13" />
    </linearGradient>
    <linearGradient
       id="paint0_linear_111_2443"
       x1="22.193001"
       y1="0.56542999"
       x2="22.193001"
       y2="249.963"
       gradientUnits="userSpaceOnUse">
      <stop
         stop-color="#FA17C8"
         id="stop30" />
      <stop
         offset="1"
         stop-color="#00CCFF"
         id="stop32" />
    </linearGradient>
    <linearGradient
       id="paint0_linear_111_2444"
       x1="188.73801"
       y1="4.3548999"
       x2="20.564899"
       y2="263.31799"
       gradientUnits="userSpaceOnUse"
       gradientTransform="translate(-0.99999519,4.3365404)">
      <stop
         stop-color="#FA17C8"
         id="stop49" />
      <stop
         offset="1"
         stop-color="#00CCFF"
         id="stop51" />
    </linearGradient>
    <linearGradient
       id="paint0_linear_111_2441"
       x1="28.177601"
       y1="0"
       x2="28.177601"
       y2="149.129"
       gradientUnits="userSpaceOnUse">
      <stop
         stop-color="#FA17C8"
         id="stop68" />
      <stop
         offset="1"
         stop-color="#00CCFF"
         id="stop70" />
    </linearGradient>
  </defs>
  <g
     inkscape:label="Layer 1"
     inkscape:groupmode="layer"
     id="layer1"
     transform="translate(-66.636862,-76.91798)">
    <g
       style="fill:none"
       id="g26"
       transform="matrix(0.36224522,0,0,0.37435642,55.473256,-73.170228)">
      <path
         d="m 169.61144,655.61202 v -38.7987 -2.35416 l -1.6943,1.63446 c -6.3913,6.1656 -11.2499,13.3622 -14.75527,21.7812 -4.35968,10.4708 -5.98982,21.877 -4.73768,33.1499 1.25214,11.2728 5.34556,22.0433 11.89675,31.3022 6.5511,9.2584 15.3456,16.7034 25.5593,21.6354 10.2137,4.932 21.5123,7.19 32.8371,6.563 11.3248,-0.626 22.3052,-4.118 31.9123,-10.147 9.607,-6.029 17.526,-14.3985 23.015,-24.3238 4.998,-9.0354 7.832,-19.0911 8.301,-29.3785 l 0.047,-1.0454 h -1.046 l -49.8511,-0.002 h -0.8307 l -0.1524,0.8166 c -0.3007,1.6116 -0.8586,3.1707 -1.658,4.6159 -1.2583,2.2752 -3.0736,4.1937 -5.2758,5.5757 -2.2022,1.3821 -4.7192,2.1824 -7.3152,2.3261 -0.2781,0.0154 -0.7557,0.051 -1.3431,0.0947 l -0.0177,10e-4 c -1.3776,0.1026 -3.4127,0.2541 -5.2406,0.3293 -1.378,0.0568 -2.7927,0.0805 -4.0151,0.0221 -0.6108,-0.0292 -1.2054,-0.0803 -1.7406,-0.166 -0.5058,-0.0809 -1.0888,-0.2121 -1.6033,-0.4605 l -1.1303,-0.5458 v -21.6262 -1 h -1 z m 1,-2 v 1 h 1 30.1613 v 22.371 0.6276 l 0.5651,0.2729 c 0.6112,0.2951 1.4961,0.4259 2.3855,0.4932 0.9319,0.0705 2.0248,0.0797 3.1481,0.0556 2.2437,-0.0482 4.6893,-0.2315 6.3643,-0.357 l 0.01,-7e-4 c 0.6677,-0.0501 1.2026,-0.0901 1.5626,-0.11 2.427,-0.1344 4.7801,-0.8826 6.8389,-2.1747 2.0589,-1.292 3.756,-3.0856 4.9324,-5.2127 1.0146,-1.8345 1.6132,-3.8653 1.7587,-5.9486 l 53.6695,0.002 c -0.01,0.653 -0.029,1.3052 -0.057,1.9566 -0.457,10.4876 -3.337,20.7416 -8.43,29.9513 -5.572,10.0734 -13.609,18.5678 -23.36,24.6868 -9.7499,6.119 -20.8942,9.663 -32.388,10.299 -11.4939,0.636 -22.9611,-1.656 -33.3273,-6.662 -10.3661,-5.005 -19.2918,-12.561 -25.9408,-21.9578 -6.64889,-9.3971 -10.80341,-20.3283 -12.07424,-31.7694 -1.27083,-11.4411 0.38365,-23.0176 4.80839,-33.6447 3.92715,-9.432 9.53065,-17.3523 17.03665,-24.01557 0.4387,-0.38953 0.8841,-0.77482 1.3361,-1.15592 z"
         stroke="url(#paint0_linear_111_2442)"
         stroke-width="2"
         id="path9"
         style="stroke:url(#paint0_linear_111_2442)" />
    </g>
    <g
       style="fill:none"
       id="g45"
       transform="matrix(0.36224522,0,0,0.37435642,116.62677,78.312727)">
      <path
         d="m 2.79346,246.963 v 1 h 1 36.79914 1 v -1 V 9.69899 6.65447 L 39.7873,9.10604 2.98822,59.0803 2.79346,59.3448 v 0.3285 z m -1,2 V 59.0164 L 42.5926,3.60995 V 248.963 Z"
         stroke="url(#paint0_linear_111_2443)"
         stroke-width="2"
         id="path28"
         style="stroke:url(#paint0_linear_111_2443)" />
    </g>
    <g
       style="fill:none"
       id="g64"
       transform="matrix(0.36224522,0,0,0.37157608,66.636783,76.782518)">
      <path
         d="m 179.593,13.88308 v -3.06066 l -1.807,2.47023 -173.6751152,237.40789 -1.1655,1.594 1.97398,-0.003 50.9794402,-0.072 h 0.5423 l 0.2952,-0.455 122.695695,-189.0851 0.161,-0.2483 v -0.2961 z M 0.97279481,253.29654 180.593,7.7617604 V 62.72714 L 56.984805,253.21854 Z"
         stroke="url(#paint0_linear_111_2444)"
         stroke-width="2"
         id="path47"
         style="stroke:url(#paint0_linear_111_2444)" />
    </g>
    <g
       style="fill:none"
       id="g83"
       transform="matrix(0.36224522,0,0,0.37435642,138.43023,120.55983)">
      <path
         d="m 3.35498,2 h -1 v 1 143.129 1 h 1 49.64512 1 v -1 V 3 2 h -1 z m -2,-1 H 55.0001 V 148.129 H 1.35498 Z"
         stroke="url(#paint0_linear_111_2441)"
         stroke-width="2"
         id="path66"
         style="stroke:url(#paint0_linear_111_2441)" />
    </g>
  </g>
</svg>
